#!OML:ASF E:\Style3\Style3.ASF
:FULLY-SPECIFIED
:DEGREES
3392
root 0.714064 17.3141 1.52157 20.24 142.699 1.05499
lowerback -0.15735 2.71097 -3.36643
upperback -7.07208 3.80913 -1.02561
thorax -7.44235 2.20897 0.538451
lowerneck -5.83317 0.213766 -3.83312
upperneck 0.964164 0.598409 13.2979
head 1.20637 0.693696 4.64991
rclavicle 8.66701e-014 1.49089e-014
rhumerus 11.9437 25.3769 -91.9878
rradius 131.859
rwrist -82.5135
rhand -35.8889 13.3053
rfingers 7.12502
rthumb -9.00256 -16.4826
lclavicle 8.66701e-014 1.49089e-014
lhumerus 10.4482 -14.0538 95.4064
lradius 138.612
lwrist 90.3754
lhand -32.4007 39.864
lfingers 7.12502
lthumb -5.63559 69.7691
rfemur -15.9563 -7.88592 22.5951
rtibia 23.647
rfoot -26.6883 -32.5487
rtoes -9.5973
lfemur -42.7943 -17.5486 -1.83905
ltibia 24.0704
lfoot -5.11723 0.653993
ltoes -34.9939
3393
root 0.714795 17.3195 1.55135 20.016 142.617 1.15188
lowerback -0.532947 2.68862 -3.07816
upperback -7.18446 3.82489 -0.931286
thorax -7.3316 2.21067 0.493615
lowerneck -5.7912 0.22097 -3.98559
upperneck 1.02818 0.611533 13.4944
head 1.21672 0.705515 4.73656
rclavicle -2.00027e-014 -2.20651e-014
rhumerus 12.0412 25.5822 -91.8911
rradius 132.274
rwrist -82.1368
rhand -35.2197 12.9934
rfingers 7.12502
rthumb -8.35683 -16.8213
lclavicle -2.00027e-014 -2.20651e-014
lhumerus 10.7234 -13.9195 95.4014
lradius 139.297
lwrist 91.2901
lhand -32.0195 39.9743
lfingers 7.12502
lthumb -5.2676 69.8889
rfemur -15.5796 -7.91204 22.6962
rtibia 23.3796
rfoot -26.4831 -32.462
rtoes -9.94299
lfemur -42.3494 -17.793 -1.64786
ltibia 23.7342
lfoot -4.86103 0.886381
ltoes -34.8226
3394
root 0.717495 17.3253 1.58121 19.7347 142.528 1.2223
lowerback -0.855106 2.60473 -2.93349
upperback -7.2788 3.75253 -0.735689
thorax -7.24722 2.18006 0.636466
lowerneck -5.8179 0.333005 -4.08536
upperneck 1.12424 0.755606 13.5239
head 1.23569 0.779171 4.76689
rclavicle -1.74123e-013 -5.36719e-015
rhumerus 12.2243 25.8189 -91.8033
rradius 132.596
rwrist -81.5604
rhand -34.1969 12.0959
rfingers 7.12502
rthumb -7.36963 -17.7557
lclavicle -1.74123e-013 -5.36719e-015
lhumerus 11.0595 -13.5057 95.363
lradius 139.759
lwrist 92.0335
lhand -31.3981 39.9776
lfingers 7.12502
lthumb -4.66759 69.9062
rfemur -15.1763 -7.78035 22.7662
rtibia 23.1392
rfoot -26.2762 -32.5365
rtoes -9.79902
lfemur -41.8426 -18.0692 -1.46938
ltibia 23.3601
lfoot -4.589 1.13215
ltoes -33.9872
3395
root 0.721895 17.3314 1.61196 19.4219 142.449 1.30758
lowerback -1.07378 2.54055 -2.80909
upperback -7.40599 3.70352 -0.537603
thorax -7.2611 2.16402 0.783509
lowerneck -5.83757 0.439484 -4.10073
upperneck 1.32726 0.87123 13.4183
head 1.28746 0.836828 4.74139
rclavicle -1.07133e-013 -1.37161e-014
rhumerus 12.3267 26.0079 -91.7347
rradius 132.98
rwrist -81.2614
rhand -33.218 11.6144
rfingers 7.12502
rthumb -6.42465 -18.2682
lclavicle -1.07133e-013 -1.37161e-014
lhumerus 11.0902 -13.6925 95.2213
lradius 139.987
lwrist 91.8796
lhand -30.7654 39.5617
lfingers 7.12502
lthumb -4.05661 69.5028
rfemur -14.7302 -7.55472 22.8518
rtibia 22.9204
rfoot -26.2492 -32.625
rtoes -9.45209
lfemur -41.2754 -18.2747 -1.34545
ltibia 22.9757
lfoot -4.43009 1.36797
ltoes -33.9943
3396
root 0.725634 17.3366 1.64118 19.0275 142.351 1.24828
lowerback -1.2954 2.53198 -2.73384
upperback -7.52748 3.72076 -0.475611
thorax -7.26386 2.17913 0.812389
lowerneck -5.94846 0.472654 -3.84675
upperneck 1.56806 0.870889 13.1652
head 1.37747 0.840887 4.62356
rclavicle 2.31646e-014 1.19271e-015
rhumerus 12.4443 26.1111 -91.6195
rradius 133.522
rwrist -81.2627
rhand -32.5171 11.6708
rfingers 7.12502
rthumb -5.74799 -18.2312
lclavicle 2.31646e-014 1.19271e-015
lhumerus 11.1877 -14.1164 95.0389
lradius 140.382
lwrist 91.4368
lhand -30.1855 39.4148
lfingers 7.12502
lthumb -3.49655 69.3659
rfemur -14.3176 -7.40511 22.8133
rtibia 22.7417
rfoot -26.1925 -32.683
rtoes -9.51101
lfemur -40.7014 -18.5688 -1.31822
ltibia 22.5653
lfoot -4.2583 1.63097
ltoes -34.3097
3397
root 0.729315 17.3425 1.66857 18.7053 142.232 1.24132
lowerback -1.61821 2.53722 -2.60328
upperback -7.63119 3.75959 -0.443992
thorax -7.18369 2.20005 0.784653
lowerneck -5.95615 0.506028 -3.52531
upperneck 1.63561 0.890193 12.9801
head 1.39844 0.851145 4.51376
rclavicle -7.06493e-014 -8.94531e-015
rhumerus 12.6356 26.2365 -91.4997
rradius 134.132
rwrist -81.0018
rhand -32.2822 11.523
rfingers 7.12502
rthumb -5.52118 -18.3851
lclavicle -7.06493e-014 -8.94531e-015
lhumerus 11.5066 -14.3674 94.7424
lradius 141.037
lwrist 91.3621
lhand -29.8301 39.466
lfingers 7.12502
lthumb -3.15343 69.4224
rfemur -13.9484 -7.21653 22.795
rtibia 22.6012
rfoot -26.248 -32.6365
rtoes -9.10955
lfemur -40.1528 -18.886 -1.23095
ltibia 22.1494
lfoot -4.05186 1.99937
ltoes -34.5493
3398
root 0.732488 17.3474 1.69743 18.3245 142.169 1.13846
lowerback -1.82426 2.45537 -2.54676
upperback -7.77284 3.67967 -0.369063
thorax -7.21591 2.17005 0.840577
lowerneck -6.10672 0.575374 -3.51509
upperneck 1.86605 0.960749 13.0805
head 1.48487 0.90269 4.54835
rclavicle 2.47238e-015 5.36719e-015
rhumerus 12.8108 26.6871 -91.3859
rradius 134.673
rwrist -80.4566
rhand -32.145 11.6952
rfingers 7.12502
rthumb -5.38871 -18.2162
lclavicle 2.47238e-015 5.36719e-015
lhumerus 11.7997 -14.5227 94.5335
lradius 141.512
lwrist 91.3768
lhand -29.3259 38.6361
lfingers 7.12502
lthumb -2.66647 68.5992
rfemur -13.6183 -7.01785 22.7213
rtibia 22.5166
rfoot -26.1725 -32.8286
rtoes -8.87588
lfemur -39.628 -19.1802 -1.2637
ltibia 21.7198
lfoot -3.82938 2.30314
ltoes -35.1469
